<svg width="18" height="18" viewBox="0 0 24 24" fill="none" xmlns="http://www.w3.org/2000/svg">
  <path d="M10.5 6.38C10.99 6.3 11.49 6.25 12 6.25C16.51 6.25 20.1 8.66 21.75 12C21.17 13.18 20.36 14.22 19.37 15.08" stroke="#355274" stroke-width="1.75" stroke-linecap="round" stroke-linejoin="round"/>
  <path d="M6.1 8.3C4.56 9.21 3.25 10.49 2.25 12C3.9 15.34 7.49 17.75 12 17.75C13.53 17.75 14.96 17.47 16.22 16.97" stroke="#355274" stroke-width="1.75" stroke-linecap="round" stroke-linejoin="round"/>
  <path d="M9.88 9.88C9.33 10.43 9 11.18 9 12C9 13.66 10.34 15 12 15C12.82 15 13.57 14.67 14.12 14.12" stroke="#355274" stroke-width="1.75" stroke-linecap="round" stroke-linejoin="round"/>
  <path d="M3 3L21 21" stroke="#355274" stroke-width="1.75" stroke-linecap="round" stroke-linejoin="round"/>
</svg>
