<svg width="20" height="20" viewBox="0 0 20 20" fill="none" xmlns="http://www.w3.org/2000/svg">
  <path d="M18.2 10.23C18.2 9.55 18.14 8.91 18.03 8.3H10V11.61H14.59C14.39 12.68 13.78 13.58 12.86 14.19V16.34H15.63C17.25 14.85 18.2 12.65 18.2 10.23Z" fill="#4285F4"/>
  <path d="M10 18.55C12.3 18.55 14.23 17.79 15.63 16.34L12.86 14.19C12.1 14.7 11.13 15.01 10 15.01C7.78 15.01 5.9 13.51 5.22 11.49H2.36V13.7C3.75 16.46 6.61 18.55 10 18.55Z" fill="#34A853"/>
  <path d="M5.22 11.49C5.05 10.98 4.95 10.43 4.95 9.86C4.95 9.29 5.05 8.74 5.22 8.23V6.02H2.36C1.79 7.15 1.46 8.41 1.46 9.86C1.46 11.31 1.79 12.57 2.36 13.7L5.22 11.49Z" fill="#FBBC05"/>
  <path d="M10 4.71C11.24 4.71 12.35 5.14 13.22 5.97L15.69 3.49C14.22 2.12 12.29 1.18 10 1.18C6.61 1.18 3.75 3.27 2.36 6.02L5.22 8.23C5.9 6.21 7.78 4.71 10 4.71Z" fill="#EA4335"/>
</svg>
