<svg width="19" height="19" viewBox="0 0 24 24" fill="none" xmlns="http://www.w3.org/2000/svg">
  <path fill-rule="evenodd" clip-rule="evenodd" d="M12 2.5C6.75 2.5 2.5 6.75 2.5 12C2.5 16.22 5.25 19.8 9.06 21.07C9.53 21.16 9.71 20.87 9.71 20.63C9.71 20.42 9.7 19.85 9.69 19.1C7.03 19.68 6.47 17.97 6.47 17.97C6.04 16.88 5.42 16.59 5.42 16.59C4.56 16.01 5.49 16.02 5.49 16.02C6.44 16.08 6.94 16.99 6.94 16.99C7.78 18.43 9.15 18.01 9.73 17.76C9.82 17.15 10.06 16.73 10.33 16.49C8.21 16.25 5.98 15.43 5.98 11.75C5.98 10.7 6.35 9.85 6.97 9.18C6.87 8.94 6.55 7.97 7.07 6.66C7.07 6.66 7.87 6.4 9.69 7.61C10.46 7.4 11.29 7.29 12.12 7.29C12.95 7.29 13.78 7.4 14.55 7.61C16.37 6.4 17.17 6.66 17.17 6.66C17.69 7.97 17.37 8.94 17.27 9.18C17.89 9.85 18.26 10.7 18.26 11.75C18.26 15.44 16.03 16.25 13.9 16.49C14.25 16.8 14.56 17.42 14.56 18.36C14.56 19.71 14.55 20.31 14.55 20.63C14.55 20.87 14.73 21.17 15.2 21.07C19.01 19.8 21.76 16.22 21.76 12C21.76 6.75 17.51 2.5 12 2.5Z" fill="#F6F9FF"/>
</svg>
